<svg xmlns="http://www.w3.org/2000/svg" width="37" height="14" viewBox="0 0 37 14">
    <path fill="#6B6C72" fill-rule="nonzero" d="M14.332 7.927v5.537H13.02V8.466c0-1.89-.636-3.164-2.335-3.164-1.89 0-2.566 1.679-2.566 3.358v4.804H6.808V8.196c0-1.756-.425-2.894-2.181-2.894-1.254 0-2.624 1.12-2.624 3.531v4.631H.69V6.422c0-.483-.02-1.37-.078-1.988h1.255c.038.482.077 1.157.077 1.544h.038c.521-1.043 1.68-1.776 2.972-1.776.984 0 2.18.367 2.778 1.91.617-1.234 1.717-1.91 3.164-1.91 2.297 0 3.435 1.486 3.435 3.725zm2.839 5.537h1.312v-9.03H17.17v9.03zm.657-13.43c-.464 0-.927.387-.927.927s.463.925.927.925c.463 0 .925-.385.925-.925a.938.938 0 0 0-.925-.927zm8.044 4.168c-1.274 0-2.586.733-3.087 1.776h-.04c0-.387-.037-1.062-.077-1.544h-1.253c.058.618.077 1.505.077 1.988v7.042h1.312v-4.63c0-2.412 1.35-3.532 2.74-3.532 1.891 0 2.45 1.273 2.45 3.164v4.998h1.313V7.927c0-2.24-1.14-3.725-3.435-3.725zm10.814 1.332v-1.1H34.14V1.886h-1.312v2.548h-1.87v1.1h1.87v5.634c0 1.987 1.352 2.412 2.316 2.412.599 0 1.081-.096 1.543-.27l-.056-1.139c-.35.174-.773.29-1.14.29-.791 0-1.35-.309-1.35-1.66V5.534h2.546z"/>
</svg>