<svg xmlns="http://www.w3.org/2000/svg" width="98" height="21" viewBox="0 0 98 21">
    <path fill="#6B6C72" fill-rule="nonzero" d="M8.847 8.09H8.79c-.753-1.176-2.104-1.794-3.396-1.794-2.818 0-4.67 2.084-4.67 4.747s1.852 4.747 4.67 4.747c1.292 0 2.643-.637 3.396-1.756h.057v6.155h1.313V6.528H8.847V8.09zM5.53 14.67c-2.18 0-3.416-1.62-3.416-3.627 0-2.007 1.235-3.647 3.416-3.647 2.026 0 3.473 1.582 3.473 3.647 0 2.065-1.447 3.627-3.473 3.627zm15.011-1.1c0 .483.02 1.37.077 1.988h-1.254a23.616 23.616 0 0 1-.077-1.544h-.038c-.502 1.042-1.814 1.776-3.088 1.776-2.296 0-3.435-1.487-3.435-3.725V6.528h1.313v4.997c0 1.892.56 3.165 2.45 3.165 1.39 0 2.74-1.12 2.74-3.531V6.528h1.312v7.043zm4.733-10.515c0 .54-.463.925-.926.925s-.926-.385-.926-.925.463-.927.926-.927.926.386.926.927zm-1.582 3.473h1.312v9.03H23.69v-9.03zm11.042 6.966l.984.732c-.771.946-1.871 1.564-3.434 1.564-2.914 0-4.824-2.026-4.824-4.747 0-2.72 1.91-4.747 4.824-4.747 1.216 0 2.586.52 3.357 1.563l-1.023.733c-.424-.694-1.331-1.196-2.315-1.196-2.104 0-3.454 1.582-3.454 3.647 0 2.045 1.332 3.627 3.435 3.627 1.138 0 1.929-.482 2.45-1.176zm5.602-2.837l5.016 4.901h-1.93l-4.591-4.746h-.059v4.746H37.46V.971h1.311v9.628h.059l4.167-4.071h1.89l-4.552 4.129zm11.659-4.36c-1.293 0-2.643.617-3.416 1.793h-.038V.97h-1.312v14.588h1.312v-1.524h.038c.773 1.138 2.123 1.756 3.416 1.756 2.817 0 4.67-2.084 4.67-4.747s-1.853-4.747-4.67-4.747zm-.135 8.373c-2.026 0-3.474-1.562-3.474-3.627 0-2.065 1.448-3.647 3.474-3.647 2.18 0 3.415 1.64 3.415 3.647 0 2.007-1.235 3.627-3.415 3.627zM63.45 6.296c-2.798 0-4.804 2.026-4.804 4.747 0 2.72 2.006 4.747 4.804 4.747 2.817 0 4.823-2.026 4.823-4.747 0-2.72-2.006-4.747-4.823-4.747zm0 8.374c-2.084 0-3.416-1.601-3.416-3.627s1.332-3.647 3.416-3.647c2.103 0 3.435 1.62 3.435 3.647 0 2.026-1.332 3.627-3.435 3.627zm11.48-8.374c-2.798 0-4.804 2.026-4.804 4.747 0 2.72 2.006 4.747 4.805 4.747 2.817 0 4.823-2.026 4.823-4.747 0-2.72-2.006-4.747-4.823-4.747zm0 8.374c-2.083 0-3.415-1.601-3.415-3.627s1.332-3.647 3.416-3.647c2.103 0 3.434 1.62 3.434 3.647 0 2.026-1.331 3.627-3.434 3.627zm9.906-4.013l5.017 4.901h-1.93l-4.592-4.746h-.058v4.746H81.96V.971h1.312v9.628h.058l4.167-4.071h1.891l-4.553 4.129zm12.812 2.335c0 2.064-1.736 2.798-3.396 2.798-1.37 0-2.74-.54-3.57-1.756l1.043-.772c.462.79 1.447 1.408 2.508 1.408 1.118 0 2.122-.405 2.122-1.582 0-.946-.945-1.331-2.663-1.737-1.06-.25-2.585-.713-2.585-2.431 0-1.833 1.582-2.624 3.222-2.624 1.254 0 2.586.598 3.165 1.62l-1.003.753c-.387-.752-1.217-1.273-2.22-1.273-.946 0-1.91.405-1.91 1.408 0 .85.675 1.235 2.161 1.544 2.123.444 3.126 1.235 3.126 2.644z"/>
</svg>