<svg xmlns="http://www.w3.org/2000/svg" width="74" height="16" viewBox="0 0 74 16">
    <path fill="#6B6C72" fill-rule="nonzero" d="M3.935 6.528h2.547v1.1H3.935v5.267c0 1.351.56 1.66 1.35 1.66.367 0 .792-.116 1.14-.29l.057 1.139c-.463.174-.945.27-1.544.27-.964 0-2.315-.425-2.315-2.412V7.628H.751v-1.1h1.872V3.98h1.312v2.548zm12.42 0h-1.312v4.63c0 2.413-1.35 3.532-2.74 3.532-1.89 0-2.45-1.273-2.45-3.165V6.528H8.54v5.537c0 2.238 1.14 3.725 3.435 3.725 1.274 0 2.586-.734 3.088-1.776h.038c0 .386.039 1.062.077 1.544h1.254a25.268 25.268 0 0 1-.077-1.987V6.528zM20.8 8.072h-.038c0-.387-.039-1.062-.077-1.544h-1.255c.058.617.078 1.505.078 1.987v7.043h1.312v-4.631c0-2.412 1.253-3.416 2.643-3.416.347 0 .771.058.926.117l.174-1.235c-.27-.077-.54-.097-.868-.097-1.274 0-2.393.733-2.895 1.776zm15.042 2.97c0 2.664-1.852 4.748-4.67 4.748-1.292 0-2.643-.618-3.415-1.756h-.038v1.524h-1.312V.971h1.312v7.12h.038c.772-1.177 2.123-1.795 3.416-1.795 2.817 0 4.67 2.084 4.67 4.747zm-1.39 0c0-2.006-1.234-3.646-3.414-3.646-2.026 0-3.473 1.582-3.473 3.647 0 2.065 1.447 3.627 3.473 3.627 2.18 0 3.415-1.62 3.415-3.627zm12.722 0c0 2.722-2.007 4.748-4.824 4.748-2.798 0-4.804-2.026-4.804-4.747 0-2.72 2.006-4.747 4.804-4.747 2.817 0 4.824 2.026 4.824 4.747zm-1.39 0c0-2.025-1.33-3.646-3.434-3.646-2.084 0-3.415 1.62-3.415 3.647 0 2.026 1.331 3.627 3.415 3.627 2.103 0 3.435-1.601 3.435-3.627zm5.63-7.062h-1.311v2.548H48.23v1.1h1.872v5.634c0 1.987 1.35 2.411 2.315 2.411.599 0 1.08-.095 1.544-.269l-.058-1.139c-.347.174-.772.29-1.139.29-.79 0-1.35-.309-1.35-1.66V7.628h2.547v-1.1h-2.547V3.98zm11.803 9.552c0 .694.058 1.524.154 2.026h-1.177a8.938 8.938 0 0 1-.135-1.467h-.038c-.83 1.197-1.834 1.699-3.28 1.699-1.37 0-3.127-.734-3.127-2.74 0-2.779 3.068-3.03 6.368-3.03v-.29c0-1.562-.849-2.334-2.412-2.334-1.062 0-2.045.424-2.682 1.061l-.733-.868c.733-.734 2.006-1.293 3.55-1.293 1.949 0 3.512 1.081 3.512 3.28v3.956zm-1.235-2.49h-.386c-2.142 0-4.631.232-4.631 1.95 0 1.293 1.1 1.717 2.122 1.717 1.853 0 2.895-1.39 2.895-2.99v-.676zm8.03-.211l3.279-4.303h-1.582l-2.47 3.434-2.47-3.434H65.09l3.338 4.36-3.55 4.67h1.583l2.76-3.763 2.681 3.763H73.6l-3.589-4.727z"/>
</svg>